<svg xmlns="http://www.w3.org/2000/svg" viewBox="0 0 400 320" width="400" height="320" role="img" aria-label="Deux vecteurs représentés à partir de l'origine dans un repère orthonormé gradué">
  <!-- Origine SVG (190, 200), pas = 30 px = 1 unité. -->
  <!-- Grille -->
  <g stroke="#e2e8f0" stroke-width="0.5">
    <line x1="40"  y1="20" x2="40"  y2="290"/>
    <line x1="70"  y1="20" x2="70"  y2="290"/>
    <line x1="100" y1="20" x2="100" y2="290"/>
    <line x1="130" y1="20" x2="130" y2="290"/>
    <line x1="160" y1="20" x2="160" y2="290"/>
    <line x1="220" y1="20" x2="220" y2="290"/>
    <line x1="250" y1="20" x2="250" y2="290"/>
    <line x1="280" y1="20" x2="280" y2="290"/>
    <line x1="310" y1="20" x2="310" y2="290"/>
    <line x1="340" y1="20" x2="340" y2="290"/>
    <line x1="370" y1="20" x2="370" y2="290"/>

    <line x1="30" y1="20"  x2="380" y2="20"/>
    <line x1="30" y1="50"  x2="380" y2="50"/>
    <line x1="30" y1="80"  x2="380" y2="80"/>
    <line x1="30" y1="110" x2="380" y2="110"/>
    <line x1="30" y1="140" x2="380" y2="140"/>
    <line x1="30" y1="170" x2="380" y2="170"/>
    <line x1="30" y1="230" x2="380" y2="230"/>
    <line x1="30" y1="260" x2="380" y2="260"/>
    <line x1="30" y1="290" x2="380" y2="290"/>
  </g>

  <!-- Axe Ox -->
  <line x1="20" y1="200" x2="390" y2="200" stroke="#334155" stroke-width="1.2"/>
  <polygon points="390,200 384,197 384,203" fill="#334155"/>
  <text x="385" y="216" font-size="12" font-style="italic" fill="#334155" font-family="Georgia,serif">x</text>

  <!-- Axe Oy -->
  <line x1="190" y1="305" x2="190" y2="10" stroke="#334155" stroke-width="1.2"/>
  <polygon points="190,10 187,16 193,16" fill="#334155"/>
  <text x="175" y="15" font-size="12" font-style="italic" fill="#334155" font-family="Georgia,serif">y</text>

  <text x="180" y="216" font-size="11" fill="#475569" font-family="Georgia,serif">O</text>

  <!-- Graduations Ox -->
  <g stroke="#334155" stroke-width="1" font-size="10" fill="#475569" font-family="Georgia,serif">
    <line x1="40"  y1="197" x2="40"  y2="203"/><text x="40"  y="216" text-anchor="middle">-5</text>
    <line x1="70"  y1="197" x2="70"  y2="203"/><text x="70"  y="216" text-anchor="middle">-4</text>
    <line x1="100" y1="197" x2="100" y2="203"/><text x="100" y="216" text-anchor="middle">-3</text>
    <line x1="130" y1="197" x2="130" y2="203"/><text x="130" y="216" text-anchor="middle">-2</text>
    <line x1="160" y1="197" x2="160" y2="203"/><text x="160" y="216" text-anchor="middle">-1</text>
    <line x1="220" y1="197" x2="220" y2="203"/><text x="220" y="216" text-anchor="middle">1</text>
    <line x1="250" y1="197" x2="250" y2="203"/><text x="250" y="216" text-anchor="middle">2</text>
    <line x1="280" y1="197" x2="280" y2="203"/><text x="280" y="216" text-anchor="middle">3</text>
    <line x1="310" y1="197" x2="310" y2="203"/><text x="310" y="216" text-anchor="middle">4</text>
    <line x1="340" y1="197" x2="340" y2="203"/><text x="340" y="216" text-anchor="middle">5</text>
    <line x1="370" y1="197" x2="370" y2="203"/><text x="370" y="216" text-anchor="middle">6</text>
  </g>

  <!-- Graduations Oy -->
  <g stroke="#334155" stroke-width="1" font-size="10" fill="#475569" font-family="Georgia,serif">
    <line x1="187" y1="20"  x2="193" y2="20"/><text x="184" y="24" text-anchor="end">6</text>
    <line x1="187" y1="50"  x2="193" y2="50"/><text x="184" y="54" text-anchor="end">5</text>
    <line x1="187" y1="80"  x2="193" y2="80"/><text x="184" y="84" text-anchor="end">4</text>
    <line x1="187" y1="110" x2="193" y2="110"/><text x="184" y="114" text-anchor="end">3</text>
    <line x1="187" y1="140" x2="193" y2="140"/><text x="184" y="144" text-anchor="end">2</text>
    <line x1="187" y1="170" x2="193" y2="170"/><text x="184" y="174" text-anchor="end">1</text>
    <line x1="187" y1="230" x2="193" y2="230"/><text x="184" y="234" text-anchor="end">-1</text>
    <line x1="187" y1="260" x2="193" y2="260"/><text x="184" y="264" text-anchor="end">-2</text>
    <line x1="187" y1="290" x2="193" y2="290"/><text x="184" y="294" text-anchor="end">-3</text>
  </g>

  <!-- Vecteur u = (3, 1) à partir de O : de (190, 200) vers (280, 170) -->
  <line x1="190" y1="200" x2="280" y2="170" stroke="#334155" stroke-width="1.8"/>
  <polygon points="280,170 271,170 275,178" fill="#334155"/>
  <text x="240" y="180" font-size="14" font-style="italic" fill="#334155" font-family="Georgia,serif">u</text>
  <text x="247" y="175" font-size="10" fill="#334155" font-family="Georgia,serif">→</text>

  <!-- Vecteur v = (2, -2) à partir de O : de (190, 200) vers (250, 260) -->
  <line x1="190" y1="200" x2="250" y2="260" stroke="#475569" stroke-width="1.8"/>
  <polygon points="250,260 242,256 246,252" fill="#475569"/>
  <text x="218" y="240" font-size="14" font-style="italic" fill="#475569" font-family="Georgia,serif">v</text>
  <text x="225" y="235" font-size="10" fill="#475569" font-family="Georgia,serif">→</text>
</svg>
