<svg xmlns="http://www.w3.org/2000/svg" viewBox="0 0 400 320" width="400" height="320" role="img" aria-label="Cercle de diamètre [AB] avec A(-2;1), B(4;3), centre I(1;2) milieu de [AB], et un point M(4;1) sur le cercle">
  <!-- Repère : 1 unité = 30 px ; origine (170, 170) -->

  <!-- Grille -->
  <g stroke="#e2e8f0" stroke-width="0.5">
    <line x1="50"  y1="20" x2="50"  y2="290"/>
    <line x1="80"  y1="20" x2="80"  y2="290"/>
    <line x1="110" y1="20" x2="110" y2="290"/>
    <line x1="140" y1="20" x2="140" y2="290"/>
    <line x1="200" y1="20" x2="200" y2="290"/>
    <line x1="230" y1="20" x2="230" y2="290"/>
    <line x1="260" y1="20" x2="260" y2="290"/>
    <line x1="290" y1="20" x2="290" y2="290"/>
    <line x1="320" y1="20" x2="320" y2="290"/>
    <line x1="350" y1="20" x2="350" y2="290"/>
    <line x1="380" y1="20" x2="380" y2="290"/>
    <line x1="40" y1="50"  x2="385" y2="50"/>
    <line x1="40" y1="80"  x2="385" y2="80"/>
    <line x1="40" y1="110" x2="385" y2="110"/>
    <line x1="40" y1="140" x2="385" y2="140"/>
    <line x1="40" y1="200" x2="385" y2="200"/>
    <line x1="40" y1="230" x2="385" y2="230"/>
    <line x1="40" y1="260" x2="385" y2="260"/>
  </g>

  <!-- Axe Ox -->
  <line x1="35" y1="170" x2="390" y2="170" stroke="#334155" stroke-width="1.2"/>
  <polygon points="390,170 384,167 384,173" fill="#334155"/>
  <text x="388" y="185" font-size="12" font-style="italic" fill="#334155" font-family="Georgia,serif">x</text>

  <!-- Axe Oy -->
  <line x1="170" y1="305" x2="170" y2="15" stroke="#334155" stroke-width="1.2"/>
  <polygon points="170,15 167,21 173,21" fill="#334155"/>
  <text x="155" y="20" font-size="12" font-style="italic" fill="#334155" font-family="Georgia,serif">y</text>

  <text x="156" y="185" font-size="11" fill="#475569" font-family="Georgia,serif">O</text>

  <!-- Graduations Ox -->
  <g stroke="#334155" stroke-width="1" font-size="10" fill="#475569" font-family="Georgia,serif">
    <line x1="200" y1="167" x2="200" y2="173"/>
    <text x="200" y="185" text-anchor="middle">1</text>
    <line x1="230" y1="167" x2="230" y2="173"/>
    <text x="230" y="185" text-anchor="middle">2</text>
    <line x1="260" y1="167" x2="260" y2="173"/>
    <text x="260" y="185" text-anchor="middle">3</text>
    <line x1="290" y1="167" x2="290" y2="173"/>
    <text x="290" y="185" text-anchor="middle">4</text>
    <line x1="140" y1="167" x2="140" y2="173"/>
    <text x="140" y="185" text-anchor="middle">-1</text>
    <line x1="110" y1="167" x2="110" y2="173"/>
    <text x="110" y="185" text-anchor="middle">-2</text>
    <line x1="80" y1="167" x2="80" y2="173"/>
    <text x="80" y="185" text-anchor="middle">-3</text>
  </g>

  <!-- Graduations Oy -->
  <g stroke="#334155" stroke-width="1" font-size="10" fill="#475569" font-family="Georgia,serif">
    <line x1="167" y1="140" x2="173" y2="140"/>
    <text x="162" y="144" text-anchor="end">1</text>
    <line x1="167" y1="110" x2="173" y2="110"/>
    <text x="162" y="114" text-anchor="end">2</text>
    <line x1="167" y1="80" x2="173" y2="80"/>
    <text x="162" y="84" text-anchor="end">3</text>
    <line x1="167" y1="200" x2="173" y2="200"/>
    <text x="162" y="204" text-anchor="end">-1</text>
  </g>

  <!-- AB : A(-2;1) → (110, 140) ; B(4;3) → (290, 80) ; centre I(1;2) → (200, 110) -->
  <!-- AB = √(36+4) = √40 = 2√10 ; r = √10 ; en px: r = √10 × 30 ≈ 94.87 -->
  <circle cx="200" cy="110" r="94.87" fill="none" stroke="#2563eb" stroke-width="1.8"/>

  <!-- Diamètre [AB] -->
  <line x1="110" y1="140" x2="290" y2="80" stroke="#7c3aed" stroke-width="1.6"/>

  <!-- A -->
  <circle cx="110" cy="140" r="3.5" fill="#334155"/>
  <text x="100" y="135" font-size="11" font-style="italic" fill="#334155" font-family="Georgia,serif">A</text>

  <!-- B -->
  <circle cx="290" cy="80" r="3.5" fill="#334155"/>
  <text x="295" y="78" font-size="11" font-style="italic" fill="#334155" font-family="Georgia,serif">B</text>

  <!-- I centre -->
  <circle cx="200" cy="110" r="3" fill="#7c3aed"/>
  <text x="205" y="106" font-size="11" font-style="italic" fill="#7c3aed" font-family="Georgia,serif">I</text>

  <!-- M(4;1) sur le cercle → (290, 140) -->
  <circle cx="290" cy="140" r="3.5" fill="#dc2626"/>
  <text x="295" y="146" font-size="11" font-style="italic" fill="#dc2626" font-family="Georgia,serif">M(4;1)</text>

  <!-- Indications de l'angle droit en M : MA et MB -->
  <line x1="290" y1="140" x2="110" y2="140" stroke="#94a3b8" stroke-width="1" stroke-dasharray="3,2"/>
  <line x1="290" y1="140" x2="290" y2="80" stroke="#94a3b8" stroke-width="1" stroke-dasharray="3,2"/>
  <rect x="282" y="132" width="8" height="8" fill="none" stroke="#dc2626" stroke-width="1"/>

  <!-- Caption -->
  <text x="200" y="315" font-size="10" fill="#475569" font-family="Georgia,serif" text-anchor="middle">Cercle de diamètre [AB], A(−2 ; 1), B(4 ; 3), I milieu. M(4 ; 1) sur le cercle.</text>
</svg>
