<svg xmlns="http://www.w3.org/2000/svg" viewBox="0 0 400 320" width="400" height="320" role="img" aria-label="Courbe de la fonction exponentielle f de x egal e puissance x, sur l'intervalle de -2 a environ 1,9. La courbe passe par le point A de coordonnees 0 et 1, marque sur le repere.">
  <!-- ── Grille légère ── -->
  <g stroke="#e2e8f0" stroke-width="0.5">
    <!-- verticales : x = -2, -1, 0, 1, 2 → 60, 130, 200, 270, 340 (1 unite = 70 px) -->
    <line x1="60"  y1="40" x2="60"  y2="295"/>
    <line x1="130" y1="40" x2="130" y2="295"/>
    <line x1="270" y1="40" x2="270" y2="295"/>
    <line x1="340" y1="40" x2="340" y2="295"/>
    <!-- horizontales : y = 1..7 → 238, 206, 174, 142, 110, 78, 46 (1 unite = 32 px) ; y=-1 → 302 -->
    <line x1="60" y1="206" x2="340" y2="206"/>
    <line x1="60" y1="174" x2="340" y2="174"/>
    <line x1="60" y1="142" x2="340" y2="142"/>
    <line x1="60" y1="110" x2="340" y2="110"/>
    <line x1="60" y1="78"  x2="340" y2="78"/>
    <line x1="60" y1="46"  x2="340" y2="46"/>
  </g>

  <!-- ── Axes ── (origine x=200, y=270) -->
  <line x1="50" y1="270" x2="355" y2="270" stroke="#334155" stroke-width="1.2"/>
  <polygon points="355,270 349,267 349,273" fill="#334155"/>
  <text x="350" y="285" font-size="12" font-style="italic" fill="#334155" font-family="Georgia,serif">x</text>

  <line x1="200" y1="305" x2="200" y2="20" stroke="#334155" stroke-width="1.2"/>
  <polygon points="200,20 197,26 203,26" fill="#334155"/>
  <text x="185" y="25" font-size="12" font-style="italic" fill="#334155" font-family="Georgia,serif">y</text>

  <text x="190" y="285" font-size="11" fill="#475569" font-family="Georgia,serif">O</text>

  <!-- ── Graduations Ox ── -->
  <g stroke="#334155" stroke-width="1" font-size="10" fill="#475569" font-family="Georgia,serif">
    <line x1="60"  y1="267" x2="60"  y2="273"/>
    <text x="60"  y="285" text-anchor="middle">-2</text>
    <line x1="130" y1="267" x2="130" y2="273"/>
    <text x="130" y="285" text-anchor="middle">-1</text>
    <line x1="270" y1="267" x2="270" y2="273"/>
    <text x="270" y="285" text-anchor="middle">1</text>
    <line x1="340" y1="267" x2="340" y2="273"/>
    <text x="340" y="285" text-anchor="middle">2</text>
  </g>

  <!-- ── Graduations Oy ── -->
  <g stroke="#334155" stroke-width="1" font-size="10" fill="#475569" font-family="Georgia,serif">
    <line x1="197" y1="238" x2="203" y2="238"/>
    <text x="190" y="242" text-anchor="end">1</text>
    <line x1="197" y1="206" x2="203" y2="206"/>
    <text x="190" y="210" text-anchor="end">2</text>
    <line x1="197" y1="174" x2="203" y2="174"/>
    <text x="190" y="178" text-anchor="end">3</text>
    <line x1="197" y1="142" x2="203" y2="142"/>
    <text x="190" y="146" text-anchor="end">4</text>
    <line x1="197" y1="110" x2="203" y2="110"/>
    <text x="190" y="114" text-anchor="end">5</text>
    <line x1="197" y1="78"  x2="203" y2="78"/>
    <text x="190" y="82" text-anchor="end">6</text>
    <line x1="197" y1="46"  x2="203" y2="46"/>
    <text x="190" y="50" text-anchor="end">7</text>
  </g>

  <!-- ── Courbe f(x) = e^x ──
       x_svg = 200 + 70*x ; y_svg = 270 - 32*e^x
       x=-2 → e^x=0.135 → (60, 265.68)
       x=-1.5 → 0.223 → (95, 262.86)
       x=-1 → 0.368 → (130, 258.22)
       x=-0.5 → 0.607 → (165, 250.58)
       x=0 → 1 → (200, 238)
       x=0.5 → 1.649 → (235, 217.23)
       x=1 → 2.718 → (270, 183.02)
       x=1.5 → 4.482 → (305, 126.58)
       x=1.8 → 6.050 → (326, 76.40)
       x=1.9 → 6.686 → (333, 55.95)  -->
  <path fill="none" stroke="#334155" stroke-width="1.8"
        d="M 60,265.68 Q 95,262.86 130,258.22 Q 165,250.58 200,238 Q 235,217.23 270,183.02 Q 305,126.58 333,56"/>

  <!-- ── Point A(0, 1) ── -->
  <circle cx="200" cy="238" r="3.5" fill="#334155"/>
  <text x="207" y="232" font-size="11" font-family="Georgia,serif" fill="#334155">A(0 ; 1)</text>

  <!-- ── Légende courbe ── -->
  <g font-family="Georgia,serif" fill="#334155">
    <text x="290" y="150" font-size="14" font-style="italic">C</text>
    <text x="302" y="155" font-size="11" font-style="italic">f</text>
  </g>
</svg>
